<svg width="493" height="540" viewBox="0 0 493 540" fill="none" xmlns="http://www.w3.org/2000/svg">
<g clip-path="url(#clip0_47_208)">
<path d="M183.432 460.5C158.429 458.198 132.541 436.508 125.93 412.301L81.3906 249.534C74.7794 225.327 89.686 202.569 114.54 198.948L230.448 182.087C255.302 178.466 292.095 187.783 312.214 202.796L414.278 278.891C434.403 293.886 437.879 322.089 422.002 341.539L343.943 437.24C328.072 456.702 294.634 470.734 269.631 468.431L183.426 460.488L183.432 460.5Z" stroke="#F7AD18" stroke-width="3" stroke-miterlimit="10"/>
<path d="M198.024 443.099C173.022 440.796 147.146 419.101 140.523 394.9L104.979 264.96C98.3563 240.758 113.275 217.995 138.117 214.38L225.458 201.675C250.312 198.055 287.105 207.371 307.224 222.385L387.466 282.213C407.58 297.214 411.067 325.411 395.19 344.861L335.741 417.749C319.869 437.211 286.432 451.243 261.429 448.94L198.024 443.099Z" stroke="#F7AD18" stroke-width="3" stroke-miterlimit="10"/>
<path d="M212.634 425.703C187.632 423.401 161.761 401.718 155.133 377.504L128.574 280.398C121.951 256.196 136.869 233.433 161.723 229.812L220.509 221.259C245.363 217.638 282.157 226.955 302.276 241.968L360.696 285.53C380.809 300.531 384.297 328.728 368.42 348.178L327.592 398.248C311.721 417.71 278.283 431.742 253.28 429.439L212.658 425.692L212.634 425.703Z" stroke="#F7AD18" stroke-width="3" stroke-miterlimit="10"/>
<path d="M227.239 408.296C202.236 405.994 176.36 384.299 169.737 360.097L152.145 295.817C145.522 271.616 160.441 248.853 185.294 245.232L215.514 240.836C240.368 237.215 277.161 246.532 297.28 261.545L333.891 288.834C354.016 303.83 357.492 332.032 341.615 351.482L319.391 378.728C303.519 398.189 270.081 412.221 245.079 409.919L227.245 408.279L227.239 408.296Z" stroke="#F7AD18" stroke-width="3" stroke-miterlimit="10"/>
<path d="M239.371 390.668C215.728 388.492 190.97 366.903 184.347 342.702L175.739 311.255C169.116 287.054 184.035 264.291 208.888 260.67L210.541 260.43C235.395 256.81 272.189 266.127 292.308 281.14L307.096 292.162C327.21 307.164 330.697 335.361 314.82 354.811L311.206 359.243C295.335 378.705 263.01 392.832 239.366 390.656L239.371 390.668Z" stroke="#F7AD18" stroke-width="3" stroke-miterlimit="10"/>
<path d="M242.585 372.213C225.214 370.606 205.658 349.804 199.152 325.983C192.633 302.167 201.579 280.588 219.029 278.058C236.474 275.516 265.634 284.543 283.828 298.101C302.021 311.66 307.285 334.537 295.536 348.943C283.787 363.349 259.967 373.815 242.585 372.213Z" stroke="#F7AD18" stroke-width="3" stroke-miterlimit="10"/>
<path d="M245.786 353.764C234.681 352.743 222.277 339.802 218.237 324.998C214.184 310.198 218.721 296.954 228.326 295.559C237.913 294.158 255.75 300.46 267.93 309.548C280.11 318.635 284.663 332.729 278.041 340.838C271.413 348.965 256.902 354.779 245.792 353.746L245.786 353.764Z" stroke="#F7AD18" stroke-width="3" stroke-miterlimit="10"/>
</g>
<defs>
<clipPath id="clip0_47_208">
<rect width="340.722" height="436.588" fill="white" transform="translate(0.19165 142.733) rotate(-24.6725)"/>
</clipPath>
</defs>
</svg>
