<svg width="530" height="528" viewBox="0 0 530 528" fill="none" xmlns="http://www.w3.org/2000/svg">
<g clip-path="url(#clip0_345_4514)">
<path d="M55.0097 438.764C19.6717 418.389 -3.83008 368.765 2.82378 328.507L47.4388 57.7503C54.0926 17.492 91.5206 -6.01863 130.655 5.50202L313.145 59.2651C352.279 70.7857 400.264 109.529 419.778 145.371L518.818 327.099C538.353 362.92 524.363 406.954 487.745 424.918L307.664 513.349C271.047 531.334 212.186 529.372 176.848 508.997L55.0097 438.743V438.764Z" stroke="white" stroke-width="1.50143" stroke-miterlimit="10"/>
<path d="M88.3427 422.955C53.0048 402.581 29.5243 352.956 36.1569 312.698L71.7934 96.5579C78.4259 56.2996 115.875 32.789 154.988 44.3096L292.501 84.8239C331.635 96.3446 379.62 135.088 399.134 170.93L476.997 313.808C496.51 349.628 482.541 393.663 445.924 411.626L308.773 478.98C272.156 496.965 213.295 495.002 177.957 474.627L88.3427 422.955Z" stroke="white" stroke-width="1.50143" stroke-miterlimit="10"/>
<path d="M121.697 407.167C86.3594 386.793 62.8789 337.19 69.5115 296.911L96.1482 135.387C102.781 95.1285 140.23 71.6178 179.364 83.1385L271.921 110.404C311.055 121.925 359.04 160.668 378.553 196.51L435.239 300.537C454.753 336.358 440.784 380.393 404.167 398.356L309.967 444.631C273.35 462.616 214.489 460.653 179.151 440.279L121.74 407.167H121.697Z" stroke="white" stroke-width="1.50143" stroke-miterlimit="10"/>
<path d="M155.052 391.359C119.714 370.984 96.2337 321.36 102.866 281.102L120.482 174.173C127.114 133.915 164.564 110.404 203.698 121.925L251.277 135.942C290.411 147.462 338.396 186.206 357.91 222.048L393.439 287.225C412.975 323.045 398.984 367.08 362.367 385.044L311.098 410.218C274.48 428.203 215.619 426.241 180.281 405.866L155.073 391.337L155.052 391.359Z" stroke="white" stroke-width="1.50143" stroke-miterlimit="10"/>
<path d="M184.909 373.544C151.49 354.279 129.588 305.572 136.221 265.314L144.836 213.002C151.469 172.744 188.918 149.233 228.052 160.754L230.654 161.522C269.788 173.042 317.773 211.786 337.287 247.628L351.639 273.955C371.153 309.775 357.184 353.81 320.567 371.773L312.228 375.87C275.61 393.855 218.328 392.788 184.909 373.523V373.544Z" stroke="white" stroke-width="1.50143" stroke-miterlimit="10"/>
<path d="M202.162 348.455C177.616 334.289 162.858 290.276 169.405 250.657C175.931 211.039 203.762 185.224 231.23 193.331C258.699 201.417 295.615 234.55 313.273 266.936C330.932 299.321 323.19 336.7 296.084 350.012C268.978 363.325 226.73 362.621 202.162 348.455Z" stroke="white" stroke-width="1.50143" stroke-miterlimit="10"/>
<path d="M219.394 323.365C203.698 314.32 194.165 286.777 198.239 262.157C202.291 237.537 217.966 221.045 233.086 225.504C248.185 229.941 270.237 251.361 282.052 273.059C293.867 294.756 291.03 318.672 275.76 326.16C260.469 333.67 235.112 332.411 219.416 323.344L219.394 323.365Z" stroke="white" stroke-width="1.50143" stroke-miterlimit="10"/>
</g>
<defs>
<clipPath id="clip0_345_4514">
<rect width="529.302" height="526.451" fill="white" transform="translate(0.00848389 0.785278)"/>
</clipPath>
</defs>
</svg>
