<svg width="248" height="274" viewBox="0 0 248 274" fill="none" xmlns="http://www.w3.org/2000/svg">
<g clip-path="url(#clip0_47_200)">
<path d="M31.9246 220.142C15.0752 210.439 3.86943 186.804 7.04203 167.63L28.3147 38.6753C31.4873 19.5013 49.3332 8.30382 67.9925 13.7908L155.005 39.3968C173.664 44.8838 196.544 63.3363 205.848 80.407L253.071 166.959C262.385 184.02 255.715 204.992 238.255 213.548L152.392 255.666C134.932 264.231 106.867 263.297 90.0177 253.593L31.9246 220.132V220.142Z" stroke="black" stroke-opacity="0.1" stroke-width="3" stroke-miterlimit="10"/>
<path d="M47.8181 212.613C30.9687 202.909 19.7731 179.274 22.9355 160.1L39.9272 57.1584C43.0897 37.9844 60.9457 26.7868 79.5949 32.2738L145.162 51.5698C163.821 57.0568 186.701 75.5093 196.005 92.58L233.13 160.629C242.435 177.689 235.774 198.662 218.315 207.218L152.921 239.296C135.461 247.862 107.396 246.927 90.5465 237.223L47.8181 212.613Z" stroke="black" stroke-opacity="0.1" stroke-width="3" stroke-miterlimit="10"/>
<path d="M63.7218 205.094C46.8724 195.39 35.6768 171.766 38.8392 152.581L51.5398 75.6517C54.7022 56.4777 72.5583 45.2801 91.2176 50.7671L135.349 63.753C154.009 69.24 176.888 87.6926 186.192 104.763L213.22 154.309C222.525 171.369 215.864 192.342 198.405 200.897L153.49 222.937C136.031 231.503 107.965 230.568 91.1159 220.864L63.7421 205.094H63.7218Z" stroke="black" stroke-opacity="0.1" stroke-width="3" stroke-miterlimit="10"/>
<path d="M79.6254 197.564C62.7761 187.861 51.5805 164.226 54.7429 145.052L63.1422 94.1244C66.3046 74.9504 84.1606 63.7529 102.82 69.2399L125.506 75.9158C144.165 81.4027 167.045 99.8553 176.349 116.926L193.29 147.968C202.604 165.029 195.934 186.001 178.474 194.557L154.029 206.547C136.57 215.113 108.504 214.178 91.6549 204.474L79.6356 197.554L79.6254 197.564Z" stroke="black" stroke-opacity="0.1" stroke-width="3" stroke-miterlimit="10"/>
<path d="M93.8614 189.08C77.9272 179.905 67.4841 156.707 70.6465 137.533L74.7546 112.618C77.9171 93.4437 95.7731 82.2462 114.432 87.7332L115.673 88.099C134.332 93.586 157.212 112.039 166.516 129.109L173.359 141.648C182.664 158.708 176.003 179.681 158.544 188.237L154.568 190.188C137.108 198.753 109.796 198.245 93.8614 189.07V189.08Z" stroke="black" stroke-opacity="0.1" stroke-width="3" stroke-miterlimit="10"/>
<path d="M102.088 177.131C90.3837 170.384 83.3471 149.421 86.4688 130.552C89.5804 111.683 102.85 99.388 115.948 103.249C129.045 107.1 146.646 122.88 155.066 138.305C163.486 153.73 159.794 171.532 146.87 177.872C133.946 184.213 113.802 183.878 102.088 177.131Z" stroke="black" stroke-opacity="0.1" stroke-width="3" stroke-miterlimit="10"/>
<path d="M110.304 165.181C102.82 160.873 98.2746 147.755 100.217 136.029C102.149 124.303 109.623 116.449 116.832 118.572C124.032 120.686 134.546 130.887 140.179 141.221C145.813 151.555 144.46 162.946 137.18 166.512C129.889 170.089 117.798 169.489 110.314 165.171L110.304 165.181Z" stroke="black" stroke-opacity="0.1" stroke-width="3" stroke-miterlimit="10"/>
</g>
<defs>
<clipPath id="clip0_47_200">
<rect width="247.458" height="272.586" fill="white" transform="translate(0.237183 0.670776)"/>
</clipPath>
</defs>
</svg>
