<svg width="254" height="444" viewBox="0 0 254 444" fill="none" xmlns="http://www.w3.org/2000/svg">
<path d="M46.6599 369.869C16.6775 352.632 -3.26243 310.65 2.38301 276.592L40.2364 47.53C45.8818 13.4713 77.6374 -6.41883 110.841 3.3277L265.674 48.8115C298.877 58.558 339.589 91.3353 356.146 121.658L440.176 275.4C456.75 305.705 444.88 342.958 413.812 358.156L261.024 432.969C229.956 448.185 180.015 446.524 150.033 429.287L46.6599 369.851V369.869Z" stroke="white" stroke-miterlimit="10"/>
<path d="M74.9402 356.495C44.9578 339.258 25.036 297.276 30.6633 263.217L60.899 80.3616C66.5263 46.3029 98.3 26.4127 131.485 36.1592L248.157 70.4345C281.361 80.1811 322.073 112.958 338.629 143.281L404.692 264.156C421.248 294.46 409.396 331.714 378.328 346.911L261.963 403.892C230.895 419.108 180.955 417.447 150.973 400.21L74.9402 356.495Z" stroke="white" stroke-miterlimit="10"/>
<path d="M103.24 343.139C73.2581 325.902 53.3362 283.938 58.9636 249.861L81.5634 113.211C87.1908 79.1522 118.964 59.2621 152.168 69.0086L230.697 92.0754C263.9 101.822 304.613 134.599 321.169 164.922L369.264 252.929C385.82 283.234 373.968 320.487 342.9 335.685L262.977 374.833C231.909 390.048 181.969 388.388 151.987 371.151L103.277 343.139H103.24Z" stroke="white" stroke-miterlimit="10"/>
<path d="M131.539 329.764C101.557 312.527 81.6351 270.545 87.2624 236.486L102.208 146.024C107.836 111.965 139.609 92.0751 172.813 101.822L213.181 113.68C246.384 123.426 287.096 156.204 303.653 186.526L333.798 241.666C350.372 271.971 338.502 309.224 307.434 324.422L263.936 345.719C232.868 360.935 182.927 359.274 152.945 342.037L131.557 329.746L131.539 329.764Z" stroke="white" stroke-miterlimit="10"/>
<path d="M156.873 314.693C128.519 298.394 109.936 257.188 115.564 223.13L122.874 178.873C128.501 144.814 160.275 124.924 193.478 134.671L195.685 135.32C228.888 145.067 269.601 177.844 286.157 208.167L298.335 230.439C314.891 260.744 303.039 297.997 271.971 313.195L264.896 316.66C233.828 331.876 185.227 330.973 156.873 314.675V314.693Z" stroke="white" stroke-miterlimit="10"/>
<path d="M171.511 293.467C150.684 281.482 138.163 244.247 143.718 210.73C149.255 177.213 172.868 155.373 196.174 162.232C219.479 169.072 250.8 197.103 265.783 224.501C280.765 251.9 274.196 283.522 251.199 294.785C228.201 306.047 192.356 305.452 171.511 293.467Z" stroke="white" stroke-miterlimit="10"/>
<path d="M186.131 272.241C172.814 264.589 164.726 241.287 168.182 220.459C171.62 199.63 184.919 185.678 197.748 189.45C210.559 193.204 229.268 211.326 239.293 229.682C249.317 248.038 246.91 268.271 233.955 274.606C220.981 280.959 199.467 279.894 186.15 272.223L186.131 272.241Z" stroke="white" stroke-miterlimit="10"/>
</svg>
