<svg width="41" height="41" viewBox="0 0 41 41" fill="none" xmlns="http://www.w3.org/2000/svg">
<circle cx="20.6494" cy="20.3171" r="19.5148" stroke="#161616" stroke-width="0.5"/>
<path fill-rule="evenodd" clip-rule="evenodd" d="M16.9714 11.7617H23.7861C26.2979 11.7617 27.6964 13.2091 27.6964 15.6891V24.0886C27.6964 26.6092 26.2979 28.0241 23.7861 28.0241H16.9714C14.4995 28.0241 13.0603 26.6092 13.0603 24.0886V15.6891C13.0603 13.2091 14.4995 11.7617 16.9714 11.7617ZM17.1909 15.5509V15.5427H19.6213C19.9718 15.5427 20.2564 15.8273 20.2564 16.1762C20.2564 16.5347 19.9718 16.8193 19.6213 16.8193H17.1909C16.8405 16.8193 16.5567 16.5347 16.5567 16.1851C16.5567 15.8355 16.8405 15.5509 17.1909 15.5509ZM17.1909 20.4949H23.5658C23.9154 20.4949 24.2 20.2103 24.2 19.8606C24.2 19.511 23.9154 19.2256 23.5658 19.2256H17.1909C16.8405 19.2256 16.5567 19.511 16.5567 19.8606C16.5567 20.2103 16.8405 20.4949 17.1909 20.4949ZM17.1909 24.2105H23.5658C23.8902 24.178 24.135 23.9007 24.135 23.5763C24.135 23.2429 23.8902 22.9665 23.5658 22.9339H17.1909C16.947 22.9095 16.7112 23.0234 16.5811 23.2348C16.451 23.4381 16.451 23.7064 16.5811 23.9178C16.7112 24.1211 16.947 24.243 17.1909 24.2105Z" fill="#1E50D1"/>
</svg>
