<svg width="113" height="44" viewBox="0 0 113 44" fill="none" xmlns="http://www.w3.org/2000/svg">
<g clip-path="url(#clip0_345_4426)">
<path fill-rule="evenodd" clip-rule="evenodd" d="M33.0133 29.604L8.70815 13.0992L0.514211 18.5499L0.5 24.1282L8.69205 18.6948L27.5896 31.5133L27.6568 37.9009L33.0607 37.9994L33.0133 29.604Z" fill="#1E50D1"/>
<path fill-rule="evenodd" clip-rule="evenodd" d="M6.01189 31.5346L12.7203 26.8516L8.70815 24.1591L0.514206 29.6098L0.517048 37.8961L5.9361 37.9994L6.01189 31.5346Z" fill="#1E50D1"/>
<path fill-rule="evenodd" clip-rule="evenodd" d="M2.05751 12.5535L7.65182 12.5805L7.81667 7.06023C12.222 6.93275 16.8415 6.99553 21.2677 7.05444C28.5682 7.92363 28.8306 19.2057 19.4174 19.2057L25.2903 23.1943C34.9887 19.8392 34.641 3.94758 23.7915 1.48489C20.9162 0.832998 6.13506 1.25214 2.04898 1.20385L2.05751 12.5535Z" fill="#1E50D1"/>
<path d="M41.8278 19.959H40.2372V23.0282H37.6385V13.5009H42.2826C43.4659 13.5009 44.3943 13.7858 45.066 14.3556C45.7386 14.9254 46.075 15.6922 46.075 16.658C46.075 17.2558 45.9234 17.7937 45.6202 18.2718C45.3171 18.7498 44.9002 19.1332 44.3706 19.423L46.4871 23.0282H43.4611L41.8278 19.959ZM40.2372 17.8739H42.0552C42.4626 17.8739 42.78 17.7696 43.0073 17.5629C43.2347 17.3553 43.3474 17.0723 43.3474 16.7159C43.3474 16.3779 43.23 16.1046 42.9931 15.8979C42.7563 15.6903 42.4389 15.586 42.041 15.586H40.2372V17.8739Z" fill="#1E50D1"/>
<path d="M54.5257 22.0865C54.0899 22.4632 53.5735 22.7674 52.9776 22.9992C52.3808 23.231 51.7223 23.3468 51.0033 23.3468C50.1885 23.3468 49.4713 23.1972 48.8518 22.8978C48.2312 22.5984 47.748 22.1734 47.4032 21.6239C47.0574 21.0734 46.884 20.4312 46.884 19.6982C46.884 18.9642 47.064 18.2959 47.424 17.6933C47.784 17.0897 48.2757 16.6145 48.901 16.2668C49.5263 15.9192 50.2264 15.7453 51.0033 15.7453C51.675 15.7453 52.2718 15.8786 52.7929 16.1442C53.313 16.4088 53.7156 16.7835 53.9999 17.2654C54.2841 17.7483 54.4262 18.2988 54.4262 18.9159C54.4262 19.4278 54.3456 19.872 54.1846 20.2477H49.4552C49.6068 20.6147 49.8626 20.8977 50.2217 21.0947C50.5817 21.2927 51.0317 21.3921 51.5708 21.3921C52.215 21.3921 52.9255 21.2038 53.7014 20.8272L54.5257 22.0865ZM50.9891 17.4827C50.648 17.4827 50.3287 17.5745 50.0303 17.758C49.7319 17.9415 49.5216 18.2119 49.3984 18.5683H52.2529C52.2055 18.2312 52.071 17.9656 51.8483 17.7725C51.6257 17.5793 51.3396 17.4827 50.9891 17.4827Z" fill="#1E50D1"/>
<path d="M62.9896 15.7888V23.0281H60.5757V22.1445C60.0072 22.8978 59.2834 23.2744 58.4024 23.2744C57.8339 23.2744 57.3138 23.1266 56.8401 22.8321C56.3664 22.5385 55.9932 22.13 55.7184 21.6094C55.4437 21.0879 55.3063 20.4988 55.3063 19.843C55.3063 19.0801 55.4929 18.3876 55.8672 17.7647C56.2414 17.1428 56.7435 16.6551 57.3726 16.3026C58.0026 15.951 58.6818 15.7743 59.4113 15.7743C60.0357 15.7743 60.7367 15.8998 61.5126 16.1509L62.9896 15.7888ZM59.3687 21.2328C59.832 21.2328 60.2014 21.0734 60.4762 20.7547V17.9753C60.1446 17.7918 59.7988 17.7 59.4388 17.7C59.004 17.7 58.6392 17.842 58.3455 18.1269C58.0518 18.4118 57.9059 18.8531 57.9059 19.4519C57.9059 20.0024 58.0357 20.436 58.2963 20.7547C58.5568 21.0734 58.914 21.2328 59.3687 21.2328Z" fill="#1E50D1"/>
<path d="M64.6939 13.2701L67.2083 12.7486V23.0281H64.6939V13.2701Z" fill="#1E50D1"/>
<path d="M76.0986 22.0865C75.6637 22.4632 75.1474 22.7674 74.5506 22.9992C73.9547 23.231 73.2962 23.3468 72.5762 23.3468C71.7624 23.3468 71.0452 23.1972 70.4247 22.8978C69.8051 22.5984 69.3219 22.1734 68.9761 21.6239C68.6303 21.0734 68.4579 20.4312 68.4579 19.6982C68.4579 18.9642 68.6379 18.2959 68.9979 17.6933C69.357 17.0897 69.8496 16.6145 70.4749 16.2668C71.0992 15.9192 71.8003 15.7453 72.5762 15.7453C73.2489 15.7453 73.8457 15.8786 74.3658 16.1442C74.8869 16.4088 75.2895 16.7835 75.5737 17.2654C75.857 17.7483 75.9991 18.2988 75.9991 18.9159C75.9991 19.4278 75.9186 19.872 75.7575 20.2477H71.0282C71.1798 20.6147 71.4355 20.8977 71.7956 21.0947C72.1556 21.2927 72.6046 21.3921 73.1446 21.3921C73.7889 21.3921 74.4985 21.2038 75.2753 20.8272L76.0986 22.0865ZM72.562 17.4827C72.2219 17.4827 71.9017 17.5745 71.6032 17.758C71.3058 17.9415 71.0945 18.2119 70.9713 18.5683H73.8268C73.7794 18.2312 73.6439 17.9656 73.4213 17.7725C73.1986 17.5793 72.9125 17.4827 72.562 17.4827Z" fill="#1E50D1"/>
<path d="M80.5153 23.3468C79.8341 23.3468 79.1596 23.2503 78.4917 23.0571C77.8247 22.864 77.2591 22.6322 76.7949 22.3618L77.4193 20.8561C77.8456 21.059 78.3335 21.228 78.882 21.3632C79.4315 21.4984 79.9573 21.566 80.4585 21.566C80.828 21.566 81.1122 21.5322 81.3111 21.4646C81.5101 21.397 81.6095 21.2763 81.6095 21.1024C81.6095 20.9575 81.5432 20.8639 81.4106 20.8204C81.278 20.777 81.0222 20.7354 80.6432 20.6968C80.3969 20.6678 80.232 20.6485 80.1468 20.6388C79.1615 20.5133 78.3922 20.2815 77.8389 19.9445C77.2847 19.6064 77.0081 19.0705 77.0081 18.3374C77.0081 17.5165 77.3103 16.8791 77.9166 16.4262C78.523 15.9723 79.3699 15.7453 80.4585 15.7453C80.9132 15.7453 81.4059 15.7965 81.9364 15.8979C82.466 15.9993 82.9302 16.1316 83.3281 16.2958V18.1926C82.9776 17.9801 82.537 17.8082 82.0074 17.6778C81.4769 17.5484 80.9701 17.4827 80.4869 17.4827C79.692 17.4827 79.2941 17.6469 79.2941 17.9753C79.2941 18.1201 79.368 18.2167 79.5149 18.265C79.6608 18.3133 79.8484 18.3519 80.0757 18.3809C80.3031 18.4099 80.4585 18.4282 80.5447 18.4388C81.2069 18.5258 81.7678 18.6339 82.2272 18.7643C82.6867 18.8947 83.0818 19.1216 83.4134 19.4442C83.744 19.7677 83.9098 20.2236 83.9098 20.8127C83.9098 21.595 83.6095 22.2121 83.0079 22.666C82.4072 23.1199 81.5764 23.3468 80.5153 23.3468Z" fill="#1E50D1"/>
<path d="M85.1319 14.0514L87.6453 13.5453V16.0495H89.9465V18.0187L87.6453 18.0042V23.0281H85.1319V14.0514Z" fill="#1E50D1"/>
<path d="M97.9993 15.7888V23.0281H95.5844V22.1445C95.016 22.8978 94.2922 23.2744 93.4111 23.2744C92.8436 23.2744 92.3226 23.1266 91.8489 22.8321C91.3761 22.5385 91.0019 22.13 90.7272 21.6094C90.4524 21.0879 90.3151 20.4988 90.3151 19.843C90.3151 19.0801 90.5026 18.3876 90.8759 17.7647C91.2501 17.1428 91.7522 16.6551 92.3823 16.3026C93.0113 15.951 93.6906 15.7743 94.4201 15.7743C95.0444 15.7743 95.7455 15.8998 96.5214 16.1509L97.9993 15.7888ZM94.3775 21.2328C94.8407 21.2328 95.2102 21.0734 95.485 20.7547V17.9753C95.1534 17.7918 94.8085 17.7 94.4485 17.7C94.0127 17.7 93.648 17.842 93.3543 18.1269C93.0615 18.4118 92.9147 18.8531 92.9147 19.4519C92.9147 20.0024 93.0445 20.436 93.305 20.7547C93.5655 21.0734 93.9227 21.2328 94.3775 21.2328Z" fill="#1E50D1"/>
<path d="M99.7027 14.0514L102.217 13.5453V16.0495H104.518V18.0187L102.217 18.0042V23.0281H99.7027V14.0514Z" fill="#1E50D1"/>
<path d="M112.5 22.0865C112.064 22.4632 111.548 22.7674 110.952 22.9992C110.355 23.231 109.697 23.3468 108.978 23.3468C108.163 23.3468 107.446 23.1972 106.826 22.8978C106.206 22.5984 105.722 22.1734 105.378 21.6239C105.032 21.0734 104.858 20.4312 104.858 19.6982C104.858 18.9642 105.038 18.2959 105.398 17.6933C105.758 17.0897 106.25 16.6145 106.875 16.2668C107.501 15.9192 108.201 15.7453 108.978 15.7453C109.649 15.7453 110.246 15.8786 110.767 16.1442C111.288 16.4088 111.69 16.7835 111.974 17.2654C112.258 17.7483 112.401 18.2988 112.401 18.9159C112.401 19.4278 112.32 19.872 112.159 20.2477H107.43C107.581 20.6147 107.837 20.8977 108.196 21.0947C108.556 21.2927 109.006 21.3921 109.546 21.3921C110.189 21.3921 110.9 21.2038 111.676 20.8272L112.5 22.0865ZM108.963 17.4827C108.622 17.4827 108.303 17.5745 108.005 17.758C107.706 17.9415 107.496 18.2119 107.373 18.5683H110.227C110.18 18.2312 110.045 17.9656 109.823 17.7725C109.6 17.5793 109.314 17.4827 108.963 17.4827Z" fill="#1E50D1"/>
<path d="M43.5322 35.1031L41.3598 32.0773L39.3713 35.1031H36.5594L40.0382 30.2385L36.6873 25.5758H39.7265L41.7568 28.4142L43.6032 25.5758H46.416L43.0784 30.253L46.5572 35.1031H43.5322Z" fill="#1E50D1"/>
<path d="M51.7697 27.8492C52.3192 27.8492 52.8355 27.996 53.3187 28.2906C53.8009 28.5852 54.1893 29.0053 54.483 29.5509C54.7767 30.0956 54.9235 30.7349 54.9235 31.4689C54.9235 32.2415 54.7502 32.9234 54.4044 33.5173C54.0586 34.1112 53.5764 34.5719 52.9558 34.9003C52.3362 35.2286 51.6276 35.3928 50.8327 35.3928C50.5201 35.3928 50.1459 35.358 49.711 35.2914V37.9984H47.1967V28.3708L49.6116 27.8637V28.7329C49.9138 28.4528 50.2501 28.2355 50.6196 28.081C50.9891 27.9265 51.3727 27.8492 51.7697 27.8492ZM50.9748 33.4671C51.4201 33.4671 51.7555 33.3319 51.9829 33.0615C52.2102 32.791 52.3239 32.3903 52.3239 31.8601C52.3239 31.2709 52.1771 30.7958 51.8834 30.4336C51.5897 30.0715 51.1738 29.8909 50.6338 29.8909C50.2643 29.8909 49.9564 29.9874 49.711 30.1806V33.0325C50.0701 33.3222 50.4917 33.4671 50.9748 33.4671Z" fill="#1E50D1"/>
<path d="M56.1589 25.345L58.6723 24.8235V35.1031H56.1589V25.345Z" fill="#1E50D1"/>
<path d="M63.9275 35.4218C63.1696 35.4218 62.4856 35.2595 61.8755 34.936C61.2644 34.6125 60.7841 34.1711 60.4335 33.6119C60.083 33.0518 59.9077 32.4289 59.9077 31.7441C59.9077 31.0102 60.0877 30.3438 60.4478 29.746C60.8078 29.1472 61.3051 28.6769 61.9389 28.334C62.5737 27.9912 63.2833 27.8203 64.0696 27.8203C64.8266 27.8203 65.5115 27.9844 66.1217 28.3128C66.7327 28.6411 67.213 29.0844 67.5636 29.6446C67.9132 30.2047 68.0884 30.8267 68.0884 31.5124C68.0884 32.2454 67.9084 32.9098 67.5494 33.5028C67.1894 34.0967 66.692 34.5651 66.0582 34.907C65.4234 35.2499 64.7129 35.4218 63.9275 35.4218ZM64.0696 33.525C64.5338 33.525 64.891 33.3676 65.1421 33.0537C65.3922 32.7408 65.5182 32.3033 65.5182 31.7441C65.5182 31.1067 65.3761 30.6074 65.0918 30.2453C64.8076 29.8831 64.4201 29.7025 63.9275 29.7025C63.4633 29.7025 63.1061 29.8619 62.8551 30.1806C62.604 30.4993 62.4789 30.9426 62.4789 31.5124C62.4789 32.1391 62.6211 32.6317 62.9053 32.989C63.1885 33.3463 63.577 33.525 64.0696 33.525Z" fill="#1E50D1"/>
<path d="M73.841 27.8782C74.1347 27.8782 74.4084 27.912 74.6642 27.9796V30.4413C74.3232 30.3254 73.9736 30.2675 73.6136 30.2675C72.7988 30.2675 72.1935 30.5756 71.7956 31.1937V35.1031H69.2821V28.3707L71.6961 27.8637V29.3693C71.9613 28.8961 72.2854 28.5301 72.669 28.2693C73.0527 28.0086 73.4431 27.8782 73.841 27.8782Z" fill="#1E50D1"/>
<path d="M82.7881 34.1614C82.3532 34.5381 81.8369 34.8423 81.24 35.0741C80.6441 35.3059 79.9857 35.4218 79.2657 35.4218C78.4519 35.4218 77.7347 35.2721 77.1142 34.9727C76.4946 34.6733 76.0114 34.2484 75.6656 33.6979C75.3198 33.1484 75.1474 32.5061 75.1474 31.7731C75.1474 31.0391 75.3274 30.3708 75.6874 29.7672C76.0465 29.1646 76.5391 28.6894 77.1644 28.3418C77.7887 27.9941 78.4898 27.8203 79.2657 27.8203C79.9383 27.8203 80.5352 27.9535 81.0553 28.2181C81.5764 28.4837 81.979 28.8575 82.2632 29.3404C82.5465 29.8232 82.6886 30.3728 82.6886 30.9908C82.6886 31.5027 82.6081 31.947 82.447 32.3226H77.7177C77.8692 32.6896 78.125 32.9716 78.485 33.1696C78.8451 33.3676 79.2941 33.4671 79.8341 33.4671C80.4783 33.4671 81.1879 33.2787 81.9648 32.9021L82.7881 34.1614ZM79.2524 29.5577C78.9114 29.5577 78.5911 29.6494 78.2927 29.8329C77.9952 30.0164 77.784 30.2868 77.6608 30.6432H80.5162C80.4689 30.3061 80.3334 30.0405 80.1108 29.8474C79.8881 29.6542 79.602 29.5577 79.2524 29.5577Z" fill="#1E50D1"/>
<path d="M88.569 27.8782C88.8627 27.8782 89.1365 27.912 89.3923 27.9796V30.4413C89.0512 30.3254 88.7017 30.2675 88.3416 30.2675C87.5269 30.2675 86.9215 30.5756 86.5236 31.1937V35.1031H84.0092V28.3707L86.4241 27.8637V29.3693C86.6894 28.8961 87.0134 28.5301 87.3971 28.2693C87.7808 28.0086 88.1711 27.8782 88.569 27.8782Z" fill="#1E50D1"/>
<path d="M69.2433 38.4002V42.5182H68.3158L66.4191 40.1646V42.5182H65.4054V38.4002H66.4125L68.2296 40.6717V38.4002H69.2433Z" fill="#1E50D1"/>
<path d="M70.5138 39.195C70.3375 39.195 70.1916 39.139 70.0751 39.0289C69.9586 38.9178 69.8998 38.7759 69.8998 38.6001C69.8998 38.433 69.9595 38.291 70.078 38.1742C70.1964 38.0573 70.3413 37.9994 70.5138 37.9994C70.69 37.9994 70.8378 38.0573 70.959 38.1742C71.0793 38.291 71.14 38.433 71.14 38.6001C71.14 38.771 71.0793 38.913 70.959 39.026C70.8378 39.138 70.69 39.195 70.5138 39.195ZM69.9794 39.6074L71.0661 39.3891V42.5182H69.9794V39.6074Z" fill="#1E50D1"/>
<path d="M75.5112 40.4273L74.8177 40.3713C74.9077 40.522 74.9522 40.691 74.9522 40.8783C74.9522 41.1198 74.8831 41.339 74.7438 41.5351C74.6046 41.7311 74.4113 41.8866 74.1631 42.0015C73.9158 42.1164 73.6363 42.1734 73.3256 42.1734H73.2024L72.7666 42.8688C72.9589 42.7345 73.174 42.6273 73.4118 42.5462C73.6486 42.4641 73.8902 42.4236 74.1356 42.4236C74.4719 42.4236 74.7552 42.5201 74.9864 42.7123C75.2175 42.9035 75.352 43.2396 75.388 43.7196L74.2531 43.8635C74.2237 43.6588 74.1602 43.5216 74.0627 43.4502C73.9641 43.3797 73.8315 43.3439 73.6629 43.3439C73.4582 43.3439 73.2337 43.3806 72.9883 43.4531C72.742 43.5265 72.5127 43.6279 72.3005 43.7573L71.643 43.3314L72.22 41.8673C72.0362 41.7417 71.8922 41.5882 71.788 41.4076C71.6828 41.225 71.6307 41.028 71.6307 40.8156C71.6307 40.5606 71.7027 40.325 71.8458 40.1086C71.9888 39.8913 72.1887 39.7185 72.4445 39.589C72.7003 39.4596 72.9864 39.3949 73.301 39.3949C73.534 39.3949 73.7491 39.4307 73.9461 39.5012H75.5112V40.4273ZM73.3189 41.4105C73.4828 41.4105 73.6221 41.3574 73.7367 41.2502C73.8514 41.1439 73.9092 40.9991 73.9092 40.8156C73.9092 40.6234 73.8476 40.4689 73.7244 40.353C73.6022 40.2361 73.4525 40.1772 73.2763 40.1772C73.1048 40.1772 72.9599 40.2303 72.8434 40.3365C72.7268 40.4428 72.669 40.5886 72.669 40.7721C72.669 40.9633 72.7335 41.1178 72.8623 41.2347C72.9912 41.3516 73.1437 41.4105 73.3189 41.4105Z" fill="#1E50D1"/>
<path d="M78.4339 38.4002V41.5853H80.4101V42.5182H77.3103V38.4002H78.4339Z" fill="#1E50D1"/>
<path d="M80.8706 38.6377L81.9572 38.4185V39.5011H82.952V40.3529L81.9572 40.3462V42.5182H80.8706V38.6377Z" fill="#1E50D1"/>
<path d="M86.445 38.0747V42.5182H85.4076V42.1299C85.2892 42.2845 85.1423 42.4052 84.9689 42.4931C84.7946 42.581 84.6051 42.6244 84.4005 42.6244C84.1551 42.6244 83.9353 42.5616 83.7411 42.4371C83.5469 42.3115 83.3934 42.1357 83.2807 41.9107C83.168 41.6857 83.1121 41.4288 83.1121 41.141C83.1121 40.803 83.1907 40.5007 83.348 40.2332C83.5052 39.9666 83.7203 39.758 83.9922 39.6074C84.265 39.4577 84.5663 39.3823 84.8979 39.3823C85.0248 39.3823 85.1812 39.3968 85.3649 39.4258V38.2997L86.445 38.0747ZM84.8922 41.7417C85.0883 41.7417 85.2465 41.6712 85.3649 41.5292V40.3394C85.2219 40.2564 85.0637 40.2148 84.8922 40.2148C84.6999 40.2148 84.5426 40.2718 84.4195 40.3867C84.2963 40.5017 84.2347 40.6842 84.2347 40.9343C84.2347 41.1806 84.2944 41.3766 84.4128 41.5225C84.5322 41.6693 84.6914 41.7417 84.8922 41.7417Z" fill="#1E50D1"/>
</g>
<defs>
<clipPath id="clip0_345_4426">
<rect width="112" height="43" fill="#1E50D1" transform="translate(0.5 0.989258)"/>
</clipPath>
</defs>
</svg>
