<svg width="267" height="261" viewBox="0 0 267 261" fill="none" xmlns="http://www.w3.org/2000/svg">
<path fill-rule="evenodd" clip-rule="evenodd" d="M266.237 233.744L67.316 98.6631L0.254245 143.274L0.137939 188.928L67.1842 144.459L221.847 249.37L222.398 301.648L266.625 302.454L266.237 233.744Z" fill="#003AD0"/>
<path fill-rule="evenodd" clip-rule="evenodd" d="M45.2486 249.543L100.153 211.217L67.3156 189.18L0.253906 233.791L0.277167 301.608L44.6283 302.454L45.2486 249.543Z" fill="#003AD0"/>
<path fill-rule="evenodd" clip-rule="evenodd" d="M12.8847 94.1969L58.6703 94.4183L60.0195 49.2385C96.0742 48.1951 133.881 48.7089 170.106 49.191C229.856 56.3047 232.004 148.64 154.964 148.64L203.029 181.284C282.403 153.825 279.558 23.7636 190.762 3.60811C167.23 -1.72715 46.2566 1.70322 12.8149 1.30802L12.8847 94.1969Z" fill="#003AD0"/>
</svg>
