<svg width="25" height="25" viewBox="0 0 25 25" fill="none" xmlns="http://www.w3.org/2000/svg">
<path d="M2.18338 8.44509C2.27978 6.96101 3.47296 5.79793 4.95835 5.72434C7.10929 5.61778 10.1836 5.48926 12.5 5.48926C14.8164 5.48926 17.8907 5.61778 20.0417 5.72434C21.527 5.79793 22.7202 6.96101 22.8166 8.44509C22.909 9.86695 23 11.6165 23 12.9893C23 14.362 22.909 16.1116 22.8166 17.5334C22.7202 19.0175 21.527 20.1806 20.0417 20.2542C17.8907 20.3607 14.8164 20.4893 12.5 20.4893C10.1836 20.4893 7.10929 20.3607 4.95835 20.2542C3.47296 20.1806 2.27978 19.0175 2.18338 17.5334C2.09102 16.1116 2 14.362 2 12.9893C2 11.6165 2.09102 9.86695 2.18338 8.44509Z" fill="#FC0D1B"/>
<path d="M10.25 9.98926V15.9893L16.25 12.9893L10.25 9.98926Z" fill="white"/>
</svg>
